<svg xmlns="http://www.w3.org/2000/svg" width="100%" height="300" viewBox="0 0 1200 300"><defs><linearGradient id="bgGrad" x1="0%" x2="100%" y1="0%" y2="100%"><stop offset="0%" stop-color="#0f172a"/><stop offset="50%" stop-color="#1e1b4b"/><stop offset="100%" stop-color="#311042"/></linearGradient><linearGradient id="accentGrad" x1="0%" x2="100%" y1="0%" y2="0%"><stop offset="0%" stop-color="#6366f1"/><stop offset="50%" stop-color="#a855f7"/><stop offset="100%" stop-color="#ec4899"/></linearGradient><linearGradient id="shieldGrad" x1="0%" x2="0%" y1="0%" y2="100%"><stop offset="0%" stop-color="#818cf8" stop-opacity=".8"/><stop offset="100%" stop-color="#c084fc" stop-opacity=".2"/></linearGradient><filter id="glow" width="140%" height="140%" x="-20%" y="-20%"><feGaussianBlur result="blur" stdDeviation="8"/><feComposite in="SourceGraphic" in2="blur" operator="over"/></filter></defs><rect width="1200" height="300" fill="url(#bgGrad)" rx="16"/><g opacity=".25"><line x1="0" x2="1200" y1="75" y2="75" stroke="#6366f1" stroke-dasharray="5 5" stroke-width="1"/><line x1="0" x2="1200" y1="150" y2="150" stroke="#6366f1" stroke-dasharray="5 5" stroke-width="1"/><line x1="0" x2="1200" y1="225" y2="225" stroke="#6366f1" stroke-dasharray="5 5" stroke-width="1"/><rect width="140" height="36" x="80" y="40" fill="url(#accentGrad)" rx="18"><animate attributeName="opacity" dur="4s" repeatCount="indefinite" values="0.3;0.7;0.3"/></rect><rect width="160" height="40" x="950" y="210" fill="url(#accentGrad)" rx="20"><animate attributeName="opacity" dur="5s" repeatCount="indefinite" values="0.4;0.8;0.4"/></rect><circle cx="150" cy="220" r="90" fill="#6366f1" filter="url(#glow)" opacity=".3"/><circle cx="1050" cy="80" r="110" fill="#ec4899" filter="url(#glow)" opacity=".3"/></g><g opacity=".4" transform="translate(920, 50)"><path fill="url(#shieldGrad)" stroke="#a855f7" stroke-width="3" d="M 100 0 L 200 40 V 120 C 200 180 100 230 100 230 C 100 230 0 180 0 120 V 40 Z"/><rect width="60" height="50" x="70" y="100" fill="#f43f5e" rx="6"/><path fill="none" stroke="#fff" stroke-linecap="round" stroke-width="8" d="M 80 100 V 80 C 80 65 120 65 120 80 V 100"/></g><g><g transform="translate(80, 0) translate(0, 45)"><rect width="320" height="32" fill="#1e293b" stroke="#a855f7" stroke-width="1.5" rx="16"/><text x="160" y="21" fill="#c084fc" font-family="-apple-system, BlinkMacSystemFont, 'Segoe UI', Roboto, sans-serif" font-size="13" font-weight="700" letter-spacing="1" text-anchor="middle">INFORMATION PROTECTION &amp; IRM</text></g><text x="0" y="130" fill="#fff" font-family="-apple-system, BlinkMacSystemFont, 'Segoe UI', Roboto, sans-serif" font-size="42" font-weight="800" letter-spacing="-.5" transform="translate(80, 0)">Awesome Information Protection</text><text x="0" y="175" fill="url(#accentGrad)" font-family="-apple-system, BlinkMacSystemFont, 'Segoe UI', Roboto, sans-serif" font-size="34" font-weight="800" letter-spacing="-.5" transform="translate(80, 0)">&amp; Rights Management</text><text x="0" y="225" fill="#94a3b8" font-family="-apple-system, BlinkMacSystemFont, 'Segoe UI', Roboto, sans-serif" font-size="16" font-weight="400" transform="translate(80, 0)">Enterprise Digital Rights Management (EDRM), Persistent Encryption &amp; Data-Centric Security</text><g><text x="0" y="0" fill="#64748b" font-family="-apple-system, BlinkMacSystemFont, 'Segoe UI', Roboto, sans-serif" font-size="13" font-weight="600" transform="translate(80, 0) translate(0, 250)">🔒 Persistent Encryption • 📜 Dynamic Policy • 👁️ DRM / IRM • 🛡️ Microsoft Purview &amp; Open-Source</text></g></g></svg>